<?xml version="1.0" encoding="UTF-8" standalone="no"?>
<svg
   xmlns:dc="http://purl.org/dc/elements/1.1/"
   xmlns:cc="http://creativecommons.org/ns#"
   xmlns:rdf="http://www.w3.org/1999/02/22-rdf-syntax-ns#"
   xmlns:svg="http://www.w3.org/2000/svg"
   xmlns="http://www.w3.org/2000/svg"
   viewBox="0 0 1360.7067 655.43866"
   height="655.43866"
   width="1360.7067"
   xml:space="preserve"
   id="svg2"
   version="1.1"><metadata
     id="metadata8"><rdf:RDF><cc:Work
         rdf:about=""><dc:format>image/svg+xml</dc:format><dc:type
           rdf:resource="http://purl.org/dc/dcmitype/StillImage" /></cc:Work></rdf:RDF></metadata><defs
     id="defs6"><clipPath
       id="clipPath18"
       clipPathUnits="userSpaceOnUse"><path
         id="path16"
         d="M 0,491.579 H 1020.526 V 0 H 0 Z" /></clipPath></defs><g
     transform="matrix(1.3333333,0,0,-1.3333333,0,655.43867)"
     id="g10"><g
       id="g12"><g
         clip-path="url(#clipPath18)"
         id="g14"><g
           transform="translate(378.6963,262.4531)"
           id="g20"><path
             id="path22"
             style="fill:#4e5ee6;fill-opacity:1;fill-rule:nonzero;stroke:none"
             d="m 0,0 c 0,-69.085 -60.163,-125.092 -134.38,-125.092 -74.216,0 -134.38,56.007 -134.38,125.092 0,69.086 60.164,125.092 134.38,125.092 C -60.163,125.092 0,69.086 0,0" /></g><g
           transform="translate(231.1025,321.6196)"
           id="g24"><path
             id="path26"
             style="fill:none;stroke:#000000;stroke-width:5;stroke-linecap:butt;stroke-linejoin:miter;stroke-miterlimit:10;stroke-dasharray:none;stroke-opacity:1"
             d="m 0,0 c 0,-1.832 -0.354,-3.705 -1.095,-5.525 l -15.519,-37.91 -9.198,-22.462 c -3.294,-8.026 -12.934,-12.049 -21.555,-8.993 -8.623,3.056 -12.946,12.038 -9.662,20.065 l 24.728,60.371 c 2.542,6.195 8.876,10.002 15.609,10.002 h 0.154 c 1.925,-0.021 3.88,-0.35 5.781,-1.018 C -4.091,12.163 0,6.267 0,0 Z" /></g><g
           transform="translate(245.2285,246.7295)"
           id="g28"><path
             id="path30"
             style="fill:none;stroke:#000000;stroke-width:5;stroke-linecap:butt;stroke-linejoin:miter;stroke-miterlimit:10;stroke-dasharray:none;stroke-opacity:1"
             d="m 0,0 c -1.88,-0.659 -3.813,-0.989 -5.704,-1.009 -6.81,-0.103 -13.275,3.725 -15.84,10.002 l -9.196,22.463 15.519,37.909 c 0.741,1.821 1.095,3.694 1.095,5.525 0,6.267 -4.091,12.163 -10.757,14.53 -1.901,0.668 -3.856,0.997 -5.781,1.018 6.731,0 13.066,-3.807 15.608,-10.001 L -5.704,57.592 9.661,20.065 C 12.944,12.038 8.623,3.056 0,0 Z" /></g><g
           transform="translate(231.1025,321.6196)"
           id="g32"><path
             id="path34"
             style="fill:none;stroke:#000000;stroke-width:5;stroke-linecap:butt;stroke-linejoin:miter;stroke-miterlimit:10;stroke-dasharray:none;stroke-opacity:1"
             d="m 0,0 c 0,-1.832 -0.354,-3.705 -1.095,-5.525 l -15.519,-37.91 -15.532,37.91 c -0.742,1.82 -1.094,3.693 -1.094,5.525 0,6.267 4.089,12.163 10.755,14.53 1.902,0.668 3.859,0.997 5.793,1.018 h 0.154 c 1.925,-0.021 3.88,-0.35 5.781,-1.018 C -4.091,12.163 0,6.267 0,0 Z" /></g><g
           transform="translate(281.1875,321.6299)"
           id="g36"><path
             id="path38"
             style="fill:none;stroke:#000000;stroke-width:5;stroke-linecap:butt;stroke-linejoin:miter;stroke-miterlimit:10;stroke-dasharray:none;stroke-opacity:1"
             d="m 0,0 c 0,-1.842 -0.354,-3.715 -1.105,-5.536 l -15.521,-37.909 -9.196,-22.462 c -2.565,-6.278 -9.032,-10.106 -15.841,-10.002 1.891,0.019 3.824,0.349 5.704,1.009 8.623,3.055 12.944,12.038 9.661,20.065 l -15.365,37.527 9.351,22.844 c 2.542,6.194 8.876,10.002 15.609,10.002 h 0.154 c 1.936,-0.021 3.893,-0.35 5.793,-1.018 C -4.102,12.163 0,6.256 0,0 Z" /></g><g
           transform="translate(295.3145,246.7305)"
           id="g40"><path
             id="path42"
             style="fill:none;stroke:#000000;stroke-width:5;stroke-linecap:butt;stroke-linejoin:miter;stroke-miterlimit:10;stroke-dasharray:none;stroke-opacity:1"
             d="m 0,0 v 0 c 8.617,3.058 12.941,12.039 9.656,20.062 l -24.72,60.37 c -3.285,8.023 -12.934,12.047 -21.551,8.989 -8.619,-3.058 -12.942,-12.041 -9.656,-20.063 L -21.553,8.989 C -18.268,0.967 -8.618,-3.058 0,0 Z" /></g><g
           transform="translate(209.3037,210.417)"
           id="g44"><path
             id="path46"
             style="fill:#ededed;fill-opacity:1;fill-rule:nonzero;stroke:none"
             d="m 0,0 c -34.398,0 -62.384,26.051 -62.384,58.073 0,26.647 -23.288,48.324 -51.913,48.324 h -7.731 c -2.887,0 -5.235,2.186 -5.235,4.874 0,2.687 2.348,4.873 5.235,4.873 h 7.731 c 34.399,0 62.384,-26.051 62.384,-58.071 C -51.913,31.425 -28.625,9.746 0,9.746 h 59.332 c 28.626,0 51.914,21.679 51.914,48.327 v 32.193 c 0,2.688 2.348,4.873 5.233,4.873 2.888,0 5.237,-2.185 5.237,-4.873 V 58.073 C 121.716,26.051 93.729,0 59.332,0 Z" /></g><g
           transform="translate(199.7344,179.3262)"
           id="g48"><path
             id="path50"
             style="fill:#ededed;fill-opacity:1;fill-rule:nonzero;stroke:none"
             d="m 0,0 c -7.186,0 -13.028,5.439 -13.028,12.128 0,6.688 5.842,12.131 13.028,12.131 7.185,0 13.03,-5.443 13.03,-12.131 C 13.03,5.439 7.185,0 0,0" /></g><g
           transform="translate(275.1338,179.3262)"
           id="g52"><path
             id="path54"
             style="fill:#ededed;fill-opacity:1;fill-rule:nonzero;stroke:none"
             d="m 0,0 c -7.184,0 -13.028,5.439 -13.028,12.128 0,6.688 5.844,12.131 13.028,12.131 7.186,0 13.031,-5.443 13.031,-12.131 C 13.031,5.439 7.186,0 0,0" /></g><g
           transform="translate(369.1074,268.0806)"
           id="g56"><path
             id="path58"
             style="fill:none;stroke:#000000;stroke-width:5;stroke-linecap:butt;stroke-linejoin:miter;stroke-miterlimit:10;stroke-dasharray:none;stroke-opacity:1"
             d="m 0,0 c 0,-69.086 -60.163,-125.091 -134.379,-125.091 -74.217,0 -134.38,56.005 -134.38,125.091 0,69.086 60.163,125.092 134.38,125.092 C -60.163,125.092 0,69.086 0,0 Z" /></g></g></g><text
       id="text62"
       style="font-variant:normal;font-weight:normal;font-stretch:normal;font-size:124.10079956px;font-family:'Sweet Creamy';-inkscape-font-specification:SweetCreamy;writing-mode:lr-tb;fill:#ffffff;fill-opacity:1;fill-rule:nonzero;stroke:none"
       transform="matrix(0.76141975,0,0,-1,405.4746,235.5801)"><tspan
         id="tspan60"
         y="0"
         x="0 113.92454 209.73035 305.16388 342.8905 410.77365 485.23413 563.66583">magister</tspan></text>
<text
       id="text66"
       style="font-variant:normal;font-weight:normal;font-stretch:normal;font-size:42.6814003px;font-family:'Franklin Gothic Book';-inkscape-font-specification:FranklinGothic-Book;writing-mode:lr-tb;fill:#ffffff;fill-opacity:1;fill-rule:nonzero;stroke:none"
       transform="matrix(1,0,0,-0.86048021,409.9746,179.3262)"><tspan
         id="tspan64"
         y="0"
         x="0 28.980671 56.510174 80.753212 110.16069 139.14136 163.89658 187.47804 211.72108 223.75723 248.51245 277.91992 289.95609 316.03442 344.33218 380.26993 405.49463 433.02414 457.26718">GRANDEZA EN COMPRAS</tspan></text>
</g></svg>